<svg xmlns="http://www.w3.org/2000/svg" width="17.183" height="17.533" viewBox="0 0 17.183 17.533">
  <g id="Сгруппировать_9449" data-name="Сгруппировать 9449" transform="translate(-13485.93 -379.032)">
    <path id="Контур_2014" data-name="Контур 2014" d="M13494.7,386.2v3.4h4.718a4.048,4.048,0,0,1-1.762,2.638l2.845,2.207a8.562,8.562,0,0,0,2.614-6.447,10.07,10.07,0,0,0-.159-1.793Z" fill="#4285f4"/>
    <path id="Контур_2015" data-name="Контур 2015" d="M13489.784,389.467l-.643.491-2.271,1.77h0a8.764,8.764,0,0,0,7.825,4.837,8.365,8.365,0,0,0,5.8-2.12l-2.845-2.207a5.272,5.272,0,0,1-7.866-2.766Z" fill="#34a853"/>
    <path id="Контур_2016" data-name="Контур 2016" d="M13486.871,383.869a8.67,8.67,0,0,0,0,7.858c0,.008,2.916-2.263,2.916-2.263a5.122,5.122,0,0,1,0-3.331Z" fill="#fbbc05"/>
    <path id="Контур_2017" data-name="Контур 2017" d="M13494.7,382.523a4.781,4.781,0,0,1,3.354,1.307l2.51-2.511a8.408,8.408,0,0,0-5.864-2.287,8.75,8.75,0,0,0-7.826,4.837l2.916,2.264a5.235,5.235,0,0,1,4.91-3.61Z" fill="#ea4335"/>
  </g>
</svg>
