<svg xmlns="http://www.w3.org/2000/svg" width="44.1" height="44.1" viewBox="0 0 44.1 44.1">
  <g id="Сгруппировать_2671" data-name="Сгруппировать 2671" transform="translate(-2101.325 -23.45)">
    <g id="Сгруппировать_2669" data-name="Сгруппировать 2669">
      <g id="Сгруппировать_2668" data-name="Сгруппировать 2668">
        <g id="Сгруппировать_2667" data-name="Сгруппировать 2667">
          <rect id="Прямоугольник_287" data-name="Прямоугольник 287" width="44.1" height="44.1" rx="22.05" transform="translate(2101.325 23.45)" fill="#da4e41"/>
        </g>
      </g>
    </g>
    <g id="Сгруппировать_2670" data-name="Сгруппировать 2670">
      <path id="Контур_622" data-name="Контур 622" d="M2109.818,45.495a8.663,8.663,0,0,1,14.361-6.479c-.7.773-1.421,1.539-2.185,2.254-1.512-.917-3.329-1.618-5.095-1a5.443,5.443,0,1,0,3.667,10.24,4.76,4.76,0,0,0,2.8-3.261c-1.646-.033-3.292-.013-4.937-.059,0-.978-.009-1.953,0-2.932,2.744-.005,5.494-.013,8.242.011a9.751,9.751,0,0,1-1.746,6.893,8.5,8.5,0,0,1-9.291,2.476,8.614,8.614,0,0,1-5.809-8.147Zm0,0" fill="#fff"/>
      <path id="Контур_623" data-name="Контур 623" d="M2132.012,41.792h2.449c0,.82.011,1.642.016,2.461.819.007,1.642.013,2.46.016v2.453c-.818,0-1.641.007-2.46.012-.008.823-.012,1.641-.016,2.463-.819,0-1.639,0-2.452,0-.009-.822-.009-1.64-.017-2.459-.818-.009-1.642-.013-2.461-.016V44.269c.819-.005,1.638-.009,2.461-.016,0-.819.012-1.641.02-2.461Zm0,0" fill="#fff"/>
    </g>
  </g>
</svg>
