<svg xmlns="http://www.w3.org/2000/svg" width="63" height="21.114" viewBox="0 0 63 21.114">
  <g id="Сгруппировать_9089" data-name="Сгруппировать 9089" transform="translate(-6079 -1387.443)">
    <g id="Сгруппировать_9086" data-name="Сгруппировать 9086">
      <g id="Сгруппировать_9083" data-name="Сгруппировать 9083">
        <path id="Контур_1798" data-name="Контур 1798" d="M6085.475,1408.032a6.561,6.561,0,0,1-2.618-.512,7.07,7.07,0,0,1-1.438-.825l-.251-.188-.02.313a1.142,1.142,0,0,1-.317.789,1.066,1.066,0,0,1-1.509,0,1.237,1.237,0,0,1-.322-.93v-18.021a1.179,1.179,0,0,1,.32-.914,1.1,1.1,0,0,1,1.513,0,1.179,1.179,0,0,1,.32.914v6.957l.277-.226a6.113,6.113,0,0,1,4.017-1.385,6.213,6.213,0,0,1,3.3.9,6.572,6.572,0,0,1,2.335,2.484,7.5,7.5,0,0,1,.865,3.642,7.783,7.783,0,0,1-.5,2.831,6.7,6.7,0,0,1-1.39,2.215,6.356,6.356,0,0,1-2.063,1.442A6.254,6.254,0,0,1,6085.475,1408.032Zm-.028-11.876a4.016,4.016,0,0,0-3.765,2.338,5.626,5.626,0,0,0-.529,2.483v1.3a2.734,2.734,0,0,0,.337,1.269,4.01,4.01,0,0,0,.924,1.156,5.037,5.037,0,0,0,1.361.845,4.314,4.314,0,0,0,1.7.332,4.069,4.069,0,0,0,3.088-1.372,4.823,4.823,0,0,0,.9-1.535,5.571,5.571,0,0,0,.329-1.941,5.786,5.786,0,0,0-.315-1.939,4.816,4.816,0,0,0-.889-1.55,3.988,3.988,0,0,0-1.388-1.026A4.293,4.293,0,0,0,6085.447,1396.156Z"/>
      </g>
      <g id="Сгруппировать_9084" data-name="Сгруппировать 9084">
        <path id="Контур_1799" data-name="Контур 1799" d="M6100.972,1407.86a.919.919,0,0,1-.453-.112,1.107,1.107,0,0,1-.544-.627.98.98,0,0,1,.048-.8,1.35,1.35,0,0,1,.792-.622,5.32,5.32,0,0,0,1.4-.671,4.522,4.522,0,0,0,1.036-1.078,4.85,4.85,0,0,0,.62-1.352,5.8,5.8,0,0,0,.214-1.6,5.269,5.269,0,0,0-.587-2.5,4.376,4.376,0,0,0-1.627-1.727,4.9,4.9,0,0,0-4.769,0,4.278,4.278,0,0,0-1.614,1.729,5.365,5.365,0,0,0-.573,2.5,5.917,5.917,0,0,0,.214,1.611,4.829,4.829,0,0,0,.617,1.363,4.228,4.228,0,0,0,.68.78,4.146,4.146,0,0,0,.794.548,6.03,6.03,0,0,0,.939.4,1.347,1.347,0,0,1,.787.62.986.986,0,0,1,.048.8,1.109,1.109,0,0,1-.544.627.935.935,0,0,1-.461.112,1.694,1.694,0,0,1-.525-.1,8.136,8.136,0,0,1-1.99-1.015,6.012,6.012,0,0,1-1.494-1.575,7.074,7.074,0,0,1-.892-1.894,7.726,7.726,0,0,1-.325-2.276,7.346,7.346,0,0,1,.878-3.613,6.527,6.527,0,0,1,2.4-2.483,7.062,7.062,0,0,1,6.914,0,6.53,6.53,0,0,1,2.4,2.483,7.349,7.349,0,0,1,.879,3.613,7.809,7.809,0,0,1-.312,2.236,6.8,6.8,0,0,1-.9,1.9,5.8,5.8,0,0,1-1.481,1.591,8.465,8.465,0,0,1-2.063,1.03A1.537,1.537,0,0,1,6100.972,1407.86Z"/>
      </g>
      <g id="Сгруппировать_9085" data-name="Сгруппировать 9085">
        <path id="Контур_1800" data-name="Контур 1800" d="M6136.738,1407.86a.918.918,0,0,1-.453-.112,1.107,1.107,0,0,1-.544-.627.983.983,0,0,1,.048-.8,1.354,1.354,0,0,1,.792-.622,5.312,5.312,0,0,0,1.4-.671,4.535,4.535,0,0,0,1.037-1.078,4.848,4.848,0,0,0,.619-1.352,5.766,5.766,0,0,0,.214-1.6,5.264,5.264,0,0,0-.587-2.5,4.373,4.373,0,0,0-1.627-1.727,4.9,4.9,0,0,0-4.769,0,4.274,4.274,0,0,0-1.614,1.729,5.365,5.365,0,0,0-.573,2.5,5.879,5.879,0,0,0,.215,1.611,4.788,4.788,0,0,0,.617,1.363,4.245,4.245,0,0,0,.679.78,4.115,4.115,0,0,0,.794.548,6,6,0,0,0,.94.4,1.348,1.348,0,0,1,.786.62.98.98,0,0,1,.048.8,1.1,1.1,0,0,1-.544.627.936.936,0,0,1-.461.112,1.692,1.692,0,0,1-.525-.1,8.139,8.139,0,0,1-1.99-1.015,6.026,6.026,0,0,1-1.494-1.575,7.074,7.074,0,0,1-.892-1.894,7.742,7.742,0,0,1-.325-2.276,7.353,7.353,0,0,1,.878-3.613,6.53,6.53,0,0,1,2.4-2.483,7.062,7.062,0,0,1,6.914,0,6.535,6.535,0,0,1,2.4,2.483A7.349,7.349,0,0,1,6142,1401a7.844,7.844,0,0,1-.311,2.236,6.8,6.8,0,0,1-.9,1.9,5.769,5.769,0,0,1-1.481,1.591,8.473,8.473,0,0,1-2.063,1.03A1.533,1.533,0,0,1,6136.738,1407.86Z"/>
      </g>
    </g>
    <g id="Сгруппировать_9088" data-name="Сгруппировать 9088">
      <g id="sTf8ll.tif">
        <g id="Сгруппировать_9087" data-name="Сгруппировать 9087">
          <path id="Контур_1801" data-name="Контур 1801" d="M6118.266,1407.5c-.04-.006-.079-.011-.122-.02a4.044,4.044,0,0,1-1.034-.438,1.054,1.054,0,0,1-.421-1.187.821.821,0,0,1,.894-.624c7.848,2.631,7.741-4.139,7.769-4.373a.233.233,0,0,1-.023-.054q-2.1,0-4.21-.005a1.33,1.33,0,0,1-.96-.311,1.56,1.56,0,0,1-.259-.7c-.1-.481-.188-.965-.319-1.438a7.558,7.558,0,0,0-1.312-2.656,5.375,5.375,0,0,0-1.939-1.609,3.873,3.873,0,0,0-2.975-.128,5.292,5.292,0,0,0-2.9,2.6,8.456,8.456,0,0,0-1.028,5.187c.015.126.114.815.137.977a8.084,8.084,0,0,0,.609,2,7,7,0,0,0,.832,1.449c1.275,1.247,2.129-.745,2.052-1.753-.492-6.679-6.846-12.905-6.918-13.452a.932.932,0,0,1,1.2-1.022l.148.043a.053.053,0,0,0,.063.051c.014-.006.022,0,.028.012.268.1,6.983,7.12,7.533,13.835.053.651-.2,4.543-3.211,4.672-5.29-.472-5.4-10.125-2.881-13.414.011-.032.02-.063.031-.094a1.892,1.892,0,0,1,.552-.715c.043-.06.089-.119.131-.176.086,0,.134-.035.137-.123h0a.331.331,0,0,1,.248-.265c.04-.039.079-.079.119-.122a.343.343,0,0,1,.268-.248,7.041,7.041,0,0,1,6.832-1.025,5.9,5.9,0,0,1,2.235,1.74,10.158,10.158,0,0,1,1.125,1.657c.051.091.347.706.418.905a18.8,18.8,0,0,1,.632,2.152c1.52,0,3.043-.005,4.564,0a.9.9,0,0,1,1,.869C6127.433,1400.532,6128.184,1409.317,6118.266,1407.5Z"/>
          <path id="Контур_1802" data-name="Контур 1802" d="M6109.871,1394.035c0,.088-.051.125-.137.123a.141.141,0,0,1,.134-.123Z"/>
          <path id="Контур_1803" data-name="Контур 1803" d="M6107.551,1390.038a.053.053,0,0,1-.063-.051C6107.511,1390,6107.531,1390.021,6107.551,1390.038Z"/>
        </g>
      </g>
    </g>
  </g>
</svg>
