<?xml version="1.0" encoding="utf-8"?>
<!-- Generator: Adobe Illustrator 23.0.1, SVG Export Plug-In . SVG Version: 6.00 Build 0)  -->
<svg version="1.1" id="Слой_1" xmlns="http://www.w3.org/2000/svg" xmlns:xlink="http://www.w3.org/1999/xlink" x="0px" y="0px"
	 viewBox="0 0 14 14" style="enable-background:new 0 0 14 14;" xml:space="preserve">
<style type="text/css">
	.st0{fill:#FFCC50;}
</style>
<path id="Контур_1825" class="st0" d="M9.6,11.8c-0.1,0-0.2,0-0.3-0.1l-2.2-1.2H7l-2.3,1.2c-0.4,0.2-0.8,0.1-1-0.3
	c-0.1-0.2-0.1-0.3-0.1-0.5L4,8.4V8.3L2.2,6.6c-0.3-0.3-0.3-0.8,0-1.1c0.1-0.1,0.3-0.2,0.4-0.2l2.5-0.4c0,0,0.1,0,0.1-0.1l1.1-2.2
	c0.2-0.4,0.7-0.5,1-0.3c0.1,0.1,0.3,0.2,0.3,0.3l1.1,2.2l0.1,0.1l2.5,0.4c0.4,0.1,0.7,0.4,0.6,0.8c0,0.2-0.1,0.3-0.2,0.4L10,8.3
	c0,0-0.1,0.1,0,0.1l0.4,2.5c0.1,0.4-0.2,0.8-0.6,0.9C9.7,11.8,9.7,11.8,9.6,11.8L9.6,11.8z"/>
</svg>
