<svg xmlns="http://www.w3.org/2000/svg" xmlns:xlink="http://www.w3.org/1999/xlink"><defs><symbol viewBox="0 0 19.1 21.6" id="ic-15-next"><style>#ic-15-next .st0{fill:#fff}</style><path class="st0" d="M12 15.7H9.7c-.4 0-.6-.3-.6-.7s.3-.7.6-.7H12c.5 0 .9-.4.9-.9s-.4-.9-.9-.9H9.7c-.2 0-.4-.1-.5-.3s-.2-.2-.1-.4l.8-2.3c.1-.3.3-.4.6-.4h3.1c.4 0 .7.3.7.6s-.3.6-.7.6H11l-.3 1H12c1.2 0 2.2 1 2.2 2.2-.1 1.3-1 2.2-2.2 2.2zM7.1 15.7c-.4 0-.6-.3-.6-.7v-3.6l-.4.4c-.2.3-.7.3-.9.1-.3-.2-.3-.7-.1-.9l1.5-1.7c.2-.2.5-.3.7-.2.3.1.4.3.4.6V15c0 .4-.3.7-.6.7zM11.5 4c-.2 0-.4-.1-.5-.2L9 1.3c-.2-.3-.2-.7.1-.9.3-.2.7-.2.9.1L12 3c.2.3.2.7-.1.9-.1.1-.2.1-.4.1z" /><path class="st0" d="M9.5 21.7c-2.9 0-5.8-1.3-7.7-3.8C.3 15.8-.4 13.3 0 10.8S1.6 6 3.7 4.4c2.3-1.7 5.2-2.3 8-1.7.3.1.6.4.5.8-.1.3-.4.6-.8.5-2.4-.6-5 0-6.9 1.5C2.7 6.8 1.6 8.8 1.3 11s.3 4.4 1.6 6.2c2.8 3.7 8 4.4 11.7 1.6s4.4-8 1.6-11.7c-.2-.3-.2-.7.1-.9.2-.2.6-.2.8.1 3.2 4.2 2.3 10.3-1.9 13.5-1.7 1.3-3.7 1.9-5.7 1.9z" /></symbol><symbol viewBox="0 0 19.1 21.6" id="ic-15-prev"><style>#ic-15-prev .st0{fill:#fff}</style><path class="st0" d="M12 15.7H9.7c-.4 0-.6-.3-.6-.7s.3-.7.6-.7H12c.5 0 .9-.4.9-.9s-.4-.9-.9-.9H9.7c-.2 0-.4-.1-.5-.3s-.2-.2-.1-.4l.8-2.3c.1-.3.3-.4.6-.4h3.1c.4 0 .7.3.7.6s-.3.6-.7.6H11l-.3 1H12c1.2 0 2.2 1 2.2 2.2-.1 1.3-1 2.2-2.2 2.2zM7.1 15.7c-.4 0-.6-.3-.6-.7v-3.6l-.4.4c-.2.3-.7.3-.9.1-.3-.2-.3-.7-.1-.9l1.5-1.7c.2-.2.5-.3.7-.2.3.1.4.3.4.6V15c0 .4-.3.7-.6.7zM7.6 4c-.2 0-.3 0-.4-.1-.3-.2-.4-.6-.2-.9L9 .5c.2-.3.6-.3.9-.1.3.2.4.6.1.9L8 3.8c-.1.1-.3.2-.4.2z" /><path class="st0" d="M9.6 21.7c-2 0-4-.6-5.8-1.9-4.2-3.2-5.1-9.2-1.9-13.5.2-.3.7-.3.9-.1.3.2.4.6.2.9C.2 10.8 1 16 4.6 18.8c3.7 2.8 8.9 2 11.7-1.6 2.8-3.7 2-8.9-1.6-11.7-2-1.5-4.5-2-6.9-1.5-.4.1-.8-.1-.9-.5-.1-.3.2-.7.5-.8 2.8-.7 5.7 0 8 1.7 4.2 3.2 5.1 9.2 1.9 13.5-1.9 2.5-4.8 3.8-7.7 3.8z" /></symbol><symbol viewBox="0 0 18.3 18.3" id="ic-archive"><style>#ic-archive .st0{fill:#010101}</style><path id="ic-archive_Контур_1666" class="st0" d="M13 18.3H5.3c-.9.1-1.9-.2-2.6-.9-.5-.7-.7-1.5-.6-2.3V7.6c0-.3.3-.6.7-.6.4 0 .6.3.6.6v7.5c-.1.5 0 1 .3 1.5.5.3 1 .5 1.6.4H13c.6.1 1.1-.1 1.6-.4.3-.4.4-1 .3-1.5V7.6c0-.4.3-.6.7-.6.4 0 .6.3.6.6v7.5c.1.8-.2 1.7-.6 2.3-.7.7-1.7 1-2.6.9z" /><path id="ic-archive_Прямоугольник_1137" class="st0" d="M3.2 0h11.9c1.8 0 3.2 1.4 3.2 3.2v1.7c0 1.8-1.4 3.2-3.2 3.2H3.2C1.4 8.1 0 6.7 0 4.9V3.2C0 1.4 1.4 0 3.2 0zm11.9 6.8c1 0 1.9-.9 1.9-1.9V3.2c0-1-.9-1.9-1.9-1.9H3.2c-1 0-1.9.9-1.9 1.9v1.7c0 1 .9 1.9 1.9 1.9h11.9z" /><path id="ic-archive_Линия_613" class="st0" d="M10.7 11.5H7.6c-.4 0-.7-.3-.7-.6 0-.4.3-.6.7-.6h3.1c.4 0 .7.3.7.6-.1.3-.3.6-.7.6z" /></symbol><symbol viewBox="0 0 11.3 9" id="ic-arr-left"><style>#ic-arr-left .st0{fill:#fff}</style><g id="ic-arr-left_Сгруппировать_2690"><path class="st0" d="M3003.6 547.6c.2 0 .3.1.5.2.3.3.3.7 0 .9l-3.1 3.1 3.1 3.1c.3.3.3.7 0 .9-.3.3-.7.3-.9 0l-3.6-3.6c-.3-.3-.3-.7 0-.9l3.6-3.6s.2-.1.4-.1z" transform="translate(-2999.347 -547.334)" /><path class="st0" d="M3000.1 551.2h9.9c.4 0 .6.3.6.7s-.3.6-.6.6h-9.9c-.4 0-.7-.3-.7-.6s.3-.7.7-.7z" transform="translate(-2999.347 -547.334)" /></g></symbol><symbol viewBox="0 0 11.3 9" id="ic-arr-right"><style>#ic-arr-right .st0{fill:#fff}</style><g id="ic-arr-right_Сгруппировать_2690"><path class="st0" d="M3006.4 556.1c-.2 0-.3-.1-.5-.2-.3-.3-.3-.7 0-.9l3.1-3.1-3.1-3.1c-.3-.3-.3-.7 0-.9.3-.3.7-.3.9 0l3.6 3.6c.3.3.3.7 0 .9l-3.6 3.6s-.2.1-.4.1z" transform="translate(-2999.347 -547.334)" /><path class="st0" d="M3009.9 552.5h-9.9c-.4 0-.6-.3-.6-.7s.3-.6.6-.6h9.9c.4 0 .7.3.7.6s-.3.7-.7.7z" transform="translate(-2999.347 -547.334)" /></g></symbol><symbol viewBox="0 0 11.1 6.3" id="ic-arrow-down"><path d="M5.5 6.4c-.2 0-.4-.1-.5-.3L.5 1.6C.2 1.3.2.8.5.5s.8-.3 1.1 0l4 4 4-4c.3-.3.8-.3 1.1 0s.3.8 0 1.1L6.1 6.1c-.2.2-.4.3-.6.3z" /></symbol><symbol viewBox="0 0 6.3 11.1" id="ic-arrow-left"><path d="M5.6 10.8c-.2 0-.4-.1-.5-.2L.6 6.1C.4 6 .4 5.8.4 5.6s0-.4.2-.6L5.1.5c.3-.3.8-.3 1.1 0s.3.8 0 1.1l-4 4 4 4c.3.3.3.8 0 1.1-.2 0-.4.1-.6.1z" /></symbol><symbol viewBox="0 0 6.3 11.1" id="ic-arrow-right"><path d="M1.1 10.8c-.2 0-.4-.1-.5-.2-.3-.3-.3-.8 0-1.1l4-4-4-4C.3 1.2.3.7.6.4s.8-.3 1.1 0L6.1 5c.3.3.3.8 0 1.1l-4.5 4.5c-.2.1-.3.2-.5.2z" /></symbol><symbol viewBox="0 0 11.1 6.3" id="ic-arrow-up"><path d="M10 6.4c-.2 0-.4-.1-.5-.2l-4-4-4 4c-.3.3-.8.3-1.1 0s-.3-.8 0-1.1L5 .6c.3-.3.8-.3 1.1 0l4.5 4.5c.3.3.3.8 0 1.1-.2.1-.4.2-.6.2z" /></symbol><symbol viewBox="0 0 12.1 14.3" id="ic-bin"><style>#ic-bin .st0{fill:#ff4d5a}</style><path class="st0" d="M.1 3.7l-.1-1 1.4-.1c3.5-.4 7.1-.2 10.7.1l-.1 1c-3.5-.4-7.1-.5-10.5-.2l-1.4.2z" /><path class="st0" d="M7.9 2.6l-.2-.9c-.1-.6-.1-.7-.8-.7H5.2c-.7 0-.7.1-.8.7l-.2.9-1-.2.1-.9C3.5.9 3.6 0 5.2 0h1.7c1.6 0 1.7.9 1.8 1.5l.1.9-.9.2zM8.2 14.3H3.9c-2.3 0-2.4-1.3-2.5-2.3L1 5.3l1-.1.4 6.7c.1 1 .1 1.4 1.5 1.4h4.3c1.4 0 1.4-.4 1.5-1.4l.4-6.7 1 .1-.4 6.7c-.1 1-.2 2.3-2.5 2.3z" /><path class="st0" d="M4.9 9.7h2.2v1H4.9zM4.4 7h3.3v1H4.4z" /></symbol><symbol viewBox="0 0 15.3 15.7" id="ic-briefcase"><style>#ic-briefcase .st0{fill:none;stroke:#0fad68;stroke-width:1.3;stroke-miterlimit:10}#ic-briefcase .st1{fill:#0fad68}</style><g id="ic-briefcase_Сгруппировать_2677"><path class="st1" d="M3462.5 53.3h-5.7c-3.4 0-4-1.6-4.2-3.1l-.5-5.8c-.1-1.2.1-2.1.7-2.8.7-.7 1.8-1.1 3.4-1.1h7.2c1.6 0 2.7.4 3.4 1.1.6.6.8 1.6.7 2.8l-.5 5.7c-.4 1.6-1.1 3.2-4.5 3.2zm-6.4-11.5c-1.2 0-2 .2-2.4.7-.3.4-.4.9-.3 1.8l.5 5.8c.1.9.2 2 2.9 2h5.7c2.5 0 2.8-.9 2.9-2l.5-5.7c.1-.9 0-1.4-.3-1.8-.4-.4-1.2-.7-2.4-.7h-7.1z" transform="translate(-3452.021 -37.672)" /><path class="st1" d="M3463.2 41.2h-1.3v-.6c0-1.3 0-1.6-1.6-1.6h-1.1c-1.6 0-1.6.4-1.6 1.6v.6h-1.3v-.6c0-1.2 0-2.9 2.9-2.9h1.1c3 0 3 1.7 3 2.9v.6zM3459.7 49c-2.1 0-2.1-1.3-2.1-2.1v-.7c0-1.1.3-1.4 1.4-1.4h1.4c1.1 0 1.4.3 1.4 1.4v.8c0 .7 0 2-2.1 2zm-.8-2.8v.8c0 .8 0 .8.8.8s.8 0 .8-.8v-.7-.1h-1.6z" transform="translate(-3452.021 -37.672)" /><path class="st1" d="M3461.2 47.6l-.2-1.3c1.9-.2 3.7-.9 5.2-2l.8 1.1c-1.7 1.1-3.7 1.9-5.8 2.2zM3458.2 47.6c-2-.2-3.9-1-5.6-2.1l.7-1.1c1.5 1 3.2 1.7 5 1.9l-.1 1.3z" transform="translate(-3452.021 -37.672)" /></g></symbol><symbol viewBox="0 0 16.3 18" id="ic-calendar"><path d="M4.846 3.783c-.4 0-.6-.3-.6-.6v-2.5c0-.4.3-.6.6-.6s.6.3.6.6v2.5c0 .3-.3.6-.6.6zM11.446 3.783c-.4 0-.7-.3-.7-.6v-2.5c0-.4.3-.6.7-.6s.7.3.7.6v2.5c0 .3-.3.6-.7.6z" /><path d="M10.646 17.983h-5c-4.7 0-5.6-2.2-5.6-5.8v-5.1c0-3.9 1.4-5.6 4.8-5.8h6.7c3.4.2 4.8 1.9 4.8 5.8v5.1c0 3.6-1 5.8-5.7 5.8zm-5.8-15.4c-2.3.1-3.5.9-3.5 4.5v5.1c0 3.2.6 4.5 4.4 4.5h5c3.7 0 4.3-1.3 4.3-4.5v-5.1c0-3.6-1.2-4.3-3.5-4.5h-6.7z" /><path d="M15.446 14.283H.846c-.4 0-.6-.3-.6-.7s.3-.7.6-.7h14.6c.4 0 .7.3.7.7s-.3.7-.7.7z" /></symbol><symbol viewBox="0 0 17.2 17.8" id="ic-calendar-check"><style>#ic-calendar-check .st0{fill:#0fad68}</style><path class="st0" d="M13.2 17.4L11 15.2l.9-1 1.3 1.3 3.1-3 .9.9zM4.3 0h1.3v2.6H4.3zM11.1 0h1.3v2.6h-1.3zM1.1 5.4h14.5v1.3H1.1z" /><path class="st0" d="M8.3 17.8H4.9c-3.1 0-4.9-1.8-4.9-5V5.6C0 2.5 1.8.7 4.9.7h6.8c3.1 0 4.9 1.8 4.9 4.9v3h-1.3v-3c0-2.4-1.2-3.6-3.6-3.6H4.9C2.5 2 1.3 3.2 1.3 5.6v7.3c0 2.4 1.2 3.6 3.6 3.6h3.4v1.3z" /></symbol><symbol viewBox="0 0 17.1 17.8" id="ic-calendar-close"><style>#ic-calendar-close .st0{fill:#ff4d5a}</style><path class="st0" d="M4.3 0h1.3v2.6H4.3zM11.1 0h1.3v2.6h-1.3zM1.1 5.4h14.5v1.3H1.1z" /><path class="st0" d="M8.3 17.8H4.9c-3.1 0-4.9-1.8-4.9-5V5.6C0 2.5 1.8.7 4.9.7h6.8c3.1 0 4.9 1.8 4.9 4.9v3h-1.3v-3c0-2.4-1.2-3.6-3.6-3.6H4.9C2.5 2 1.3 3.2 1.3 5.6v7.3c0 2.4 1.2 3.6 3.6 3.6h3.4v1.3z" /><path transform="rotate(-45.001 14.556 14.734)" class="st0" d="M13.9 11.8h1.3v5.9h-1.3z" /><path transform="rotate(-45.001 14.556 14.734)" class="st0" d="M11.6 14.1h5.9v1.3h-5.9z" /></symbol><symbol viewBox="0 0 16.3 16.3" id="ic-call"><path d="M12.25 16.361c-1 0-1.9-.2-2.7-.6-.9-.4-1.9-.9-2.7-1.6a26.219 26.219 0 01-4.7-4.7c-.6-.8-1.1-1.7-1.5-2.7-.4-.9-.6-1.8-.6-2.7 0-.6.1-1.2.3-1.7.2-.6.6-1.1 1-1.5.5-.5 1.2-.9 2-.9.3 0 .6.1.9.2.3.1.6.4.8.6l1.7 2.4c.1.2.3.4.4.7.1.2.1.4.2.7 0 .3-.1.6-.3.9-.1.2-.3.5-.5.7l-.5.5c.2.3.4.6.6.8.3.4.7.8 1.1 1.2.4.4.8.8 1.2 1.1.3.2.5.4.8.6l.5-.5c.2-.2.4-.4.7-.5.2-.2.5-.2.9-.2.3 0 .5.1.7.2.2.1.4.2.6.4l2.5 1.8c.3.2.5.4.6.7.1.3.2.6.2.9 0 .4-.1.8-.3 1.1l-.6.9c-.4.4-.9.8-1.5 1-.6 0-1.2.2-1.8.2zm-8.9-15.1c-.4 0-.8.2-1.1.5-.3.3-.6.7-.7 1.1-.1.4-.2.8-.2 1.2 0 .8.2 1.5.5 2.2.4.9.8 1.7 1.4 2.4.6.8 1.3 1.6 2 2.4.7.7 1.5 1.4 2.4 2 .8.6 1.6 1 2.5 1.4.7.3 1.4.5 2.2.5.4 0 .8-.1 1.2-.2.4-.2.7-.4 1-.7.2-.2.3-.4.4-.6.1-.2.1-.4.1-.5 0-.1 0-.2-.1-.3 0-.1-.1-.1-.2-.2l-2.5-1.8c-.1-.1-.3-.2-.4-.2h-.2c-.1 0-.1 0-.2.1-.2.1-.3.2-.4.3l-.6.6c-.2.2-.5.3-.8.3-.1 0-.3 0-.4-.1l-.2-.1c-.4-.2-.7-.5-1.1-.8-.4-.3-.8-.7-1.2-1.1-.4-.4-.8-.8-1.1-1.2-.3-.3-.5-.7-.8-1.1l-.1-.3c0-.2-.1-.3-.1-.4 0-.3.1-.6.3-.8l.6-.6c.1-.1.2-.3.3-.4 0-.1.1-.1.1-.2v-.2c-.1-.2-.1-.3-.2-.4l-1.8-2.5c-.1-.1-.1-.2-.2-.2-.2 0-.3-.1-.4-.1zm6.2 9.1z" /></symbol><symbol viewBox="0 0 15.3 15.342" id="ic-chat"><g data-name="Сгруппировать 3005"><path data-name="Контур 1433" d="M7.651 15.341a1.71 1.71 0 01-1.36-.722l-1.04-1.387a.234.234 0 00-.065-.033h-.335a5.359 5.359 0 01-3.578-.948c-.868-.759-1.272-2-1.272-3.9v-3.5a4.349 4.349 0 014.85-4.85h5.6a4.348 4.348 0 014.85 4.85v3.5a4.348 4.348 0 01-4.85 4.85h-.35a.052.052 0 00-.041.022l-1.047 1.4a1.71 1.71 0 01-1.362.718zm-2.8-14.042a3.082 3.082 0 00-3.55 3.55v3.5c0 1.5.263 2.429.828 2.923a4.069 4.069 0 002.722.627h.351a1.436 1.436 0 011.079.539l1.051 1.4a.354.354 0 00.64 0l1.049-1.4a1.361 1.361 0 011.08-.54h.35a3.081 3.081 0 003.55-3.55v-3.5a3.081 3.081 0 00-3.55-3.55z" /><path data-name="Линия 147" d="M11.151 5.5h-7a.65.65 0 01-.65-.65.65.65 0 01.65-.65h7a.65.65 0 01.65.65.65.65 0 01-.65.65z" /><path data-name="Линия 148" d="M8.351 9h-4.2a.65.65 0 01-.65-.65.65.65 0 01.65-.65h4.2a.65.65 0 01.65.65.65.65 0 01-.65.65z" /></g></symbol><symbol viewBox="0 0 16.849 8.974" id="ic-check"><g data-name="Сгруппировать 1571"><g data-name="Сгруппировать 1570"><path data-name="Контур 192" d="M3.492 8.974L0 5.482l.849-.849 2.644 2.644L10.77 0l.849.849z" /><path data-name="Контур 193" d="M8.723 8.974L7.266 7.517l.848-.849.609.609L16 0l.849.849z" /></g></g></symbol><symbol viewBox="0 0 19.2 19.2" id="ic-clear"><path d="M16.6 18H7.3c-.4 0-.6-.3-.6-.7s.3-.7.6-.7h9.3c.4 0 .7.3.7.7s-.4.7-.7.7z" /><path d="M6.9 17.7c-1 0-1.9-.4-2.6-1.1l-1.8-1.8c-.7-.7-1.1-1.6-1.1-2.6s.4-1.9 1.1-2.6l7.1-7.1c1.4-1.4 3.8-1.4 5.2 0l1.8 1.8C18 5.7 18 8 16.6 9.5l-7.1 7.1c-.7.7-1.6 1.1-2.6 1.1zm5.4-14.9c-.6 0-1.2.2-1.7.7l-7.1 7.1c-.4.4-.7 1-.7 1.7 0 .6.2 1.2.7 1.7l1.8 1.8c.9.9 2.4.9 3.3 0l7.1-7.1c.9-.9.9-2.4 0-3.3l-1.8-1.8c-.4-.5-1-.8-1.6-.8z" /><path d="M11.8 14c-.2 0-.3-.1-.5-.2l-6-6c-.3-.3-.3-.7 0-.9s.7-.3.9 0l6 6c.3.3.3.7 0 .9-.1.2-.2.2-.4.2z" /><path d="M3 14.6c-.2 0-.3-.1-.5-.2-.3-.3-.3-.7 0-.9l4.4-4.4c.3-.3.7-.3.9 0s.3.7 0 .9l-4.4 4.4c0 .2-.2.2-.4.2zM5.2 16.8c-.2 0-.3-.1-.5-.2-.3-.3-.3-.7 0-.9l4.4-4.4c.3-.3.7-.3.9 0s.3.7 0 .9l-4.4 4.4c-.1.1-.2.2-.4.2z" /></symbol><symbol viewBox="0 0 13.3 13.3" id="ic-clock"><path d="M6.7 13.3C3 13.3 0 10.3 0 6.6 0 3 3 0 6.7 0s6.7 3 6.7 6.6c-.1 3.7-3.1 6.7-6.7 6.7zm0-12c-3 0-5.4 2.4-5.4 5.4 0 3 2.4 5.4 5.4 5.4S12 9.6 12 6.6c0-2.9-2.4-5.3-5.3-5.3z" /><path d="M8.5 9.1L6.7 8c-.6-.4-.9-.9-.9-1.5V4h1.3v2.5c0 .2.1.4.3.5l1.8 1-.7 1.1z" /></symbol><symbol viewBox="0 0 10.1 10.1" id="ic-close"><path d="M9.071 9.808c-.2 0-.4-.1-.5-.2l-8-8c-.3-.3-.3-.8 0-1.1s.8-.3 1.1 0l8 8c.3.3.3.8 0 1.1-.2.1-.4.2-.6.2z" /><path d="M1.071 9.808c-.2 0-.4-.1-.5-.2-.3-.3-.3-.8 0-1.1l8-8c.3-.3.8-.3 1.1 0s.3.8 0 1.1l-8 8c-.2.1-.4.2-.6.2z" /></symbol><symbol viewBox="0 0 15.3 15.3" id="ic-column"><path d="M10.7 15.3h-6c-2.6 0-4.6-2.1-4.6-4.7v-6C0 2.1 2.1 0 4.6 0h6c2.6 0 4.7 2.1 4.7 4.6v6c0 2.6-2.1 4.7-4.6 4.7zm-6.1-14c-1.8 0-3.4 1.5-3.4 3.4v6c0 1.8 1.5 3.3 3.4 3.3h6c1.8 0 3.3-1.5 3.3-3.3v-6c0-1.8-1.5-3.4-3.3-3.4h-6z" /><path d="M7.6 14.7c-.4 0-.6-.3-.6-.7V1.1c0-.4.3-.6.6-.6s.6.3.6.6V14c.1.4-.2.7-.6.7z" /><path d="M14.7 8.3h-7c-.4 0-.7-.3-.7-.7s.3-.6.6-.6h7c.4 0 .7.3.7.6s-.3.7-.6.7z" /></symbol><symbol viewBox="0 0 21.5 18.5" id="ic-credit-card"><g data-name="Сгруппировать 859"><path data-name="Линия 83" d="M20.75 6.5h-20V5h20z" /><path data-name="Линия 84" d="M6.75 14.5h-2V13h2z" /><path data-name="Линия 85" d="M13.25 14.5h-4V13h4z" /><path data-name="Контур 370" d="M5.195 0h11.106c2.113 0 3.3.317 4.083 1.1.977.966 1.112 2.516 1.112 4.048v8.214c0 1.532-.135 3.082-1.112 4.048-.787.778-1.97 1.095-4.083 1.095H5.19c-2.113 0-3.3-.317-4.083-1.095-.977-.966-1.112-2.516-1.112-4.048V5.148c0-1.532.135-3.082 1.112-4.048C1.901.317 3.082 0 5.195 0zm11.111 17c1.653 0 2.559-.2 3.028-.662S20 14.985 20 13.357V5.143c0-1.628-.2-2.519-.666-2.981S17.959 1.5 16.306 1.5H5.195c-1.653 0-2.559.2-3.029.662S1.5 3.515 1.5 5.143v8.214c0 1.628.2 2.52.666 2.981S3.541 17 5.195 17z" /></g></symbol><symbol viewBox="0 0 13.8 2.5" id="ic-dots"><circle cx="12.6" cy="1.3" r="1.3" /><circle cx="6.9" cy="1.3" r="1.3" /><circle cx="1.3" cy="1.3" r="1.3" /></symbol><symbol viewBox="0 0 19.3 20" id="ic-edit"><path d="M2.352 20.015h-.5c-1.3-.3-2.1-1.5-1.9-2.8l.4-3.6c.1-.7.4-1.4.9-2l9.3-9.8c1-1.1 2-1.7 3-1.8 1.2-.2 2.5.4 3.8 1.6 1.3 1.2 1.9 2.5 1.8 3.7-.1 1-.6 2.1-1.6 3.1l-9.2 9.8c-.5.5-1.2.9-1.9 1l-3.6.6c-.1.2-.3.2-.5.2zm11.7-18.7h-.3c-.7.1-1.5.5-2.3 1.4l-9.2 9.8c-.3.3-.5.8-.6 1.3l-.4 3.6c-.1.6.3 1.2.8 1.3h.5l3.7-.6c.4-.1.9-.3 1.2-.7l9.2-9.8c.8-.8 1.2-1.6 1.3-2.3.1-.9-.4-1.8-1.4-2.7-.9-.9-1.7-1.3-2.5-1.3zm-3 .9z" /><path d="M15.652 10.315c-3.5-.3-6.2-2.9-6.8-6.3-.1-.4.2-.7.5-.7.4-.1.7.2.7.5.4 2.8 2.7 5 5.5 5.2.4 0 .6.4.6.7.1.4-.2.6-.5.6z" /></symbol><symbol viewBox="0 0 13.2 14.4" id="ic-edit-line"><path d="M9.2 0c.8 0 1.6.4 2.2 1 .7.6 1.1 1.5 1.1 2.4-.1.8-.5 1.5-1 2L6 11.2c-.3.3-.8.6-1.3.7l-2.1.4h-.3c-.5 0-.9-.2-1.2-.5-.3-.4-.5-.9-.4-1.3l.2-2.2c.1-.5.3-1 .6-1.4L7 1.1C7.5.5 8.4.1 9.2 0zM2.3 11.1h.1l2.1-.4.6-.3 5.5-5.8c.8-.9 1.1-1.6-.1-2.7-.3-.4-.8-.6-1.3-.7-.5.1-1 .3-1.3.8L2.4 7.8c-.1.1-.2.3-.3.6l-.2 2.2c0 .1 0 .3.1.4.1 0 .2.1.3.1z" /><path d="M10.2 6.6c-2.2-.3-3.9-1.9-4.3-4 0-.3.2-.6.5-.7s.6.2.7.5c.3 1.6 1.5 2.8 3.1 3 .3 0 .6.3.6.6s-.3.6-.6.6zM12.6 14.4H.6c-.3 0-.6-.3-.6-.6s.3-.6.6-.6h12c.3 0 .6.3.6.6 0 .4-.3.6-.6.6z" /></symbol><symbol viewBox="0 0 16.3 16.3" id="ic-export"><style>#ic-export .st0{fill:#010101}</style><path id="ic-export_Контур_1667" class="st0" d="M8.9 8.1c-.4 0-.6-.3-.6-.7 0-.2.1-.3.2-.5L14.6.8c.3-.2.7-.2.9 0 .2.3.2.6 0 .9L9.4 7.9c-.2.1-.3.2-.5.2z" /><path id="ic-export_Контур_1668" class="st0" d="M15.6 4.9c-.4 0-.6-.3-.6-.6v-3h-3c-.4 0-.6-.3-.6-.7 0-.3.3-.6.6-.6h3.6c.4 0 .6.3.6.6v3.6c.1.4-.2.7-.6.7z" /><path id="ic-export_Контур_1669" class="st0" d="M10.4 16.3H5.9c-2.1 0-3.5-.4-4.5-1.4S0 12.5 0 10.4V5.9c0-2.1.4-3.5 1.4-4.5S3.8 0 5.9 0h1.5c.4 0 .6.3.6.7 0 .3-.2.6-.6.6H5.9c-3.4 0-4.6 1.2-4.6 4.6v4.5c0 3.4 1.2 4.6 4.6 4.6h4.5c3.4 0 4.6-1.2 4.6-4.6V8.9c0-.4.3-.6.7-.6.4 0 .6.3.6.6v1.5c0 2.1-.4 3.5-1.4 4.5s-2.4 1.4-4.5 1.4z" /></symbol><symbol viewBox="0 0 16 13.5" id="ic-eye"><style>#ic-eye .st0{fill:#8a919f}</style><path class="st0" d="M8 5.1c-.9 0-1.6.7-1.6 1.6S7.1 8.4 8 8.4s1.6-.7 1.6-1.6S8.9 5.1 8 5.1m0-1.3c1.6 0 2.9 1.3 2.9 2.9s-1.3 3-2.9 3c-1.6 0-2.9-1.3-2.9-2.9s1.3-3 2.9-3z" /><path class="st0" d="M8 12.2c1.2 0 2.3-.3 3.4-1s2.1-1.7 2.9-3c.5-.7.5-2.1 0-2.8-.8-1.3-1.8-2.3-2.9-3-1.1-.7-2.2-1-3.4-1-1.2 0-2.3.3-3.4 1-1.1.6-2.1 1.6-3 2.9-.5.7-.5 2.1 0 2.8.8 1.3 1.8 2.3 2.9 3 1.2.8 2.3 1.1 3.5 1.1m0 1.3zm0 0c-2.9 0-5.6-1.7-7.5-4.6-.7-1.1-.7-3.1 0-4.2C2.4 1.7 5.1 0 8 0c2.9 0 5.6 1.7 7.4 4.6.7 1.1.7 3.1 0 4.2-1.8 3-4.5 4.7-7.4 4.7zM8 0z" /></symbol><symbol viewBox="0 0 18.2 17.9" id="ic-eye-close"><style>#ic-eye-close .st0{fill:#8a919f}</style><path class="st0" d="M9 7.2c-.9.1-1.6.8-1.6 1.7L9 7.2m.1-1.3c.8 0 1.6.3 2.2.9L7 11.1c-.6-.5-.9-1.3-.9-2.1 0-1.7 1.3-3.1 3-3.1z" /><path class="st0" d="M3.2 14.3c-.9-.8-1.8-1.8-2.4-2.8-.9-1.6-.9-3.5 0-5.1 2.1-3.3 5.1-5.2 8.3-5.2 1.9 0 3.8.7 5.3 1.9l-.8 1c-1.3-1-2.9-1.6-4.6-1.6-2.7 0-5.4 1.6-7.2 4.5-.6 1.1-.6 2.6 0 3.7.6.9 1.3 1.8 2.2 2.5l-.8 1.1zM9.1 16.6c-1.1 0-2.3-.2-3.3-.7l.5-1.2c.9.4 1.8.6 2.8.6 2.7 0 5.4-1.6 7.2-4.5.6-1.1.6-2.6 0-3.7-.2-.4-.5-.8-.8-1.2l1-.8c.3.4.7.9.9 1.3.9 1.6.9 3.5 0 5.1-2.1 3.3-5.1 5.1-8.3 5.1z" /><path class="st0" d="M9.8 12.6l-.3-1.3c1-.2 1.7-.9 1.9-1.9l1.3.2c-.3 1.6-1.4 2.7-2.9 3z" /><path transform="rotate(-44.968 3.784 14.286)" class="st0" d="M-.7 13.6h9v1.3h-9z" /><path transform="rotate(-45.033 14.434 3.634)" class="st0" d="M9.9 3h9v1.3h-9z" /></symbol><symbol viewBox="0 0 12.3 14.8" id="ic-file"><style>#ic-file .st0{fill:#8a919f}</style><path id="ic-file_Контур_120" class="st0" d="M6.9 14.8H5.4C2.9 15.2.5 13.6 0 11c-.1-.5-.1-1.1 0-1.6v-4C-.5 2.9 1.2.4 3.8 0c.5-.1 1.1-.1 1.6 0h.8c.4 0 .6.3.6.7 0 .4-.3.6-.6.6h-.8c-3 0-4.1 1.1-4.1 4.1v4.1c0 3 1.1 4.1 4.1 4.1h1.5c3 0 4.1-1.1 4.1-4.1V6.1c0-.4.3-.6.7-.6.4 0 .6.3.6.6v3.4c.4 2.5-1.2 4.9-3.8 5.4-.5 0-1.1 0-1.6-.1z" /><path id="ic-file_Контур_121" class="st0" d="M11.7 6.7H8.9c-1.5.3-3-.7-3.3-2.2-.1-.4-.1-.7 0-1.1V.7c0-.4.3-.7.6-.7.2 0 .3.1.5.2l5.4 5.4c.3.3.3.7 0 .9-.1.1-.3.2-.4.2zM6.9 2.2v1.1c-.3.9.2 1.8 1 2.1.3.1.7.1 1 0H10L6.9 2.2z" /></symbol><symbol viewBox="0 0 18.3 16.6" id="ic-filter"><path d="M17.65 4.3h-5.1c-.4 0-.7-.3-.7-.6s.3-.6.7-.6h5.1c.4 0 .7.3.7.6s-.3.6-.7.6zM4.05 4.3H.65c-.4 0-.6-.3-.6-.6s.3-.6.6-.6h3.4c.4 0 .6.3.6.6s-.2.6-.6.6z" /><path d="M7.45 7.2c-2 0-3.6-1.6-3.6-3.6S5.45 0 7.45 0s3.6 1.6 3.6 3.6-1.6 3.6-3.6 3.6zm0-5.9c-1.3 0-2.3 1-2.3 2.3s1 2.3 2.3 2.3c1.3 0 2.3-1 2.3-2.3s-1-2.3-2.3-2.3zM17.65 13.6h-3.4c-.4 0-.7-.3-.7-.7s.3-.7.7-.7h3.4c.4 0 .7.3.7.7s-.3.7-.7.7zM5.75 13.6H.65c-.4 0-.6-.3-.6-.7s.3-.7.6-.7h5.1c.4 0 .6.3.6.7s-.2.7-.6.7z" /><path d="M10.85 16.6c-2 0-3.6-1.6-3.6-3.6s1.6-3.6 3.6-3.6 3.6 1.6 3.6 3.6-1.6 3.6-3.6 3.6zm0-5.9c-1.3 0-2.3 1-2.3 2.3s1 2.3 2.3 2.3c1.3 0 2.3-1 2.3-2.3s-1-2.3-2.3-2.3z" /></symbol><symbol viewBox="0 0 19.3 19.4" id="ic-home"><path d="M9.7 15.9c-.4 0-.6-.3-.6-.7v-2.7c0-.4.3-.7.6-.7s.6.3.6.7v2.7c.1.4-.2.7-.6.7z" /><path d="M14.8 19.5H4.4c-2.5 0-4.4-2-4.4-4.5V8.3c.1-1.4.7-2.6 1.7-3.5l4.9-3.7C8.1 0 10.1-.1 11.7.9l5.6 3.9c1.2 1 1.9 2.3 1.9 3.6V15c.1 2.5-1.9 4.5-4.4 4.5zm-5.5-18c-.7 0-1.4.2-2 .6L2.5 5.8c-.7.7-1.2 1.5-1.3 2.6V15c0 1.7 1.4 3.1 3.1 3.1h10.4c1.7 0 3.1-1.4 3.1-3.1V8.4c0-1-.5-1.9-1.4-2.6L11 1.9c-.5-.3-1.1-.4-1.7-.4zM7 1.6z" /></symbol><symbol viewBox="0 0 16 16" id="ic-info"><style>#ic-info .st0{fill:#ff4d5a}</style><path id="ic-info_Контур_1996" class="st0" d="M8 0C3.6 0 0 3.6 0 8s3.6 8 8 8 8-3.6 8-8-3.6-8-8-8zm0 14.7A6.7 6.7 0 118 1.3a6.7 6.7 0 010 13.4z" /><path id="ic-info_Контур_1997" class="st0" d="M8 9.4c-.5 0-.9-.4-.9-.9v-4c0-.5.4-.9.9-.9s.9.4.9.8v4c0 .6-.4 1-.9 1z" /><circle id="ic-info_Эллипс_543" class="st0" cx="8" cy="11.3" r="1" /></symbol><symbol viewBox="0 0 12 12" id="ic-lines"><path d="M1.3 8.2v2.5h9.4V8.2H1.3m0-1.3h9.5c.9 0 1.3.4 1.3 1.3v2.4c0 1-.4 1.3-1.3 1.3H1.3C.4 12 0 11.6 0 10.7V8.2c0-.9.4-1.3 1.3-1.3zM1.3 1.3v2.5h9.4V1.3H1.3m0-1.3h9.5c.8 0 1.2.4 1.2 1.3v2.4c0 1-.4 1.3-1.3 1.3H1.3C.4 5.1 0 4.7 0 3.8V1.3C0 .4.4 0 1.3 0z" /></symbol><symbol viewBox="0 0 17.2 10" id="ic-link"><g data-name="Сгруппировать 1028"><path data-name="Контур 433" d="M12.2 10h-1.211a.6.6 0 110-1.2H12.2a3.8 3.8 0 100-7.6H11A.6.6 0 0111 0h1.2a5 5 0 110 10z" /><path data-name="Контур 434" d="M6.197 10h-1.2a5 5 0 110-10h1.2a.6.6 0 110 1.2h-1.2a3.8 3.8 0 100 7.6h1.2a.6.6 0 010 1.2z" /><path data-name="Линия 105" d="M11.8 5.6H5.4a.6.6 0 01-.6-.6.6.6 0 01.6-.6h6.4a.6.6 0 01.6.6.6.6 0 01-.6.6z" /></g></symbol><symbol viewBox="0 0 16 16" id="ic-logout"><style>#ic-logout .st0{fill:#ff4d5a}</style><g id="ic-logout_Сгруппировать_159"><path id="ic-logout_Контур_70" class="st0" d="M12.8 11c-.3 0-.6-.3-.6-.6 0-.2.1-.3.2-.4l1.8-1.8-1.8-1.8c-.2-.3-.2-.6 0-.9.2-.2.6-.2.9 0L16 8.1l-2.7 2.7c-.1.1-.3.2-.5.2z" /><path id="ic-logout_Линия_17" class="st0" d="M15 8.7H6c-.3 0-.6-.3-.6-.6s.3-.6.6-.6h9c.3 0 .6.3.6.6.1.3-.2.6-.6.6z" /><path id="ic-logout_Контур_73" class="st0" d="M7.8 15.8c-2 0-4-.7-5.5-2.1-3-3.2-3-8.2 0-11.4C3.8.9 5.8.2 7.8.2c.3 0 .6.3.6.6s-.3.6-.6.6c-3.6.1-6.5 3-6.5 6.6s2.9 6.5 6.5 6.5c.3 0 .6.3.6.6 0 .4-.3.7-.6.7z" /></g></symbol><symbol viewBox="0 0 21.5 18.5" id="ic-mail"><path d="M15.8 18.5h-10c-3.7 0-5.8-2.1-5.8-5.8v-7C0 2.1 2.1 0 5.8 0h10c3.7 0 5.8 2.1 5.8 5.8v7c-.1 3.6-2.2 5.7-5.8 5.7zm-10-17c-2.9 0-4.3 1.4-4.3 4.3v7c0 2.9 1.4 4.3 4.3 4.3h10c2.9 0 4.3-1.4 4.3-4.3v-7c0-2.9-1.4-4.3-4.3-4.3h-10z" /><path d="M10.7 10.1c-.8 0-1.6-.3-2.3-.8L5.3 6.8c-.3-.2-.4-.7-.1-1 .3-.3.7-.4 1.1-.1l3.1 2.5c.8.6 2 .6 2.8 0l3.1-2.5c.3-.3.8-.2 1.1.1.3.3.2.8-.1 1.1l-3.1 2.5c-.8.5-1.6.7-2.5.7z" /></symbol><symbol viewBox="0 0 6 10" id="ic-many-dots"><style>#ic-many-dots .st0{fill:#8a919f}</style><path id="ic-many-dots_Прямоугольник_1275" class="st0" d="M1 10c-.6 0-1-.4-1-1s.4-1 1-1 1 .4 1 1-.4 1-1 1z" /><path id="ic-many-dots_Прямоугольник_1276" class="st0" d="M1 6c-.6 0-1-.4-1-1s.4-1 1-1 1 .4 1 1-.4 1-1 1z" /><path id="ic-many-dots_Прямоугольник_1277" class="st0" d="M1 2c-.6 0-1-.4-1-1s.4-1 1-1 1 .4 1 1-.4 1-1 1z" /><path id="ic-many-dots_Прямоугольник_1278" class="st0" d="M5 10c-.6 0-1-.4-1-1s.4-1 1-1 1 .4 1 1-.4 1-1 1z" /><path id="ic-many-dots_Прямоугольник_1279" class="st0" d="M5 6c-.6 0-1-.4-1-1s.4-1 1-1 1 .4 1 1-.4 1-1 1z" /><path id="ic-many-dots_Прямоугольник_1280" class="st0" d="M5 2c-.6 0-1-.4-1-1s.4-1 1-1 1 .4 1 1-.4 1-1 1z" /></symbol><symbol viewBox="0 0 7.3 1.3" id="ic-minus"><path d="M6.7 1.3h-6C.3 1.3 0 1 0 .6S.3 0 .6 0h6c.4 0 .7.3.7.6s-.3.7-.6.7z" /></symbol><symbol viewBox="0 0 12 12" id="ic-missed-call"><style>#ic-missed-call .st0{fill:#ff4d5a}</style><path id="ic-missed-call_Контур_1793" class="st0" d="M12 9.8c0 .2-.1.4-.1.7-.1.2-.2.4-.4.6-.3.3-.6.5-1 .7-.4.1-.8.2-1.2.2-.7 0-1.3-.2-2-.4-.7-.3-1.4-.7-2.1-1.2-.3-.3-.7-.5-1-.8l2-2c.2.2.5.4.8.6h.2c.1 0 .2 0 .2-.1l.5-.4c.1-.1.3-.2.4-.3.1-.1.3-.1.4-.1.1 0 .3 0 .4.1.1.1.3.1.4.2l2 1.4c.1.1.3.2.3.4.2.1.2.2.2.4z" /><path id="ic-missed-call_Контур_1794" class="st0" d="M5.3 6.7l-2 2c-.6-.6-1.2-1.3-1.7-2-.5-.6-.9-1.3-1.2-2-.2-.6-.4-1.3-.4-2 0-.4.1-.8.2-1.2.1-.3.3-.5.6-.8C.8.6.9.6.9.5c.1 0 .2-.1.3-.2.3-.2.6-.3 1-.3.2 0 .3 0 .5.1l.3.3 1.4 2c.1.1.2.3.2.4.1.1.1.2.1.4s0 .3-.1.4c-.1.2-.2.3-.3.4l-.5.5c0 .1-.1.2-.1.3V5c.3.3.5.5.7.8.2.3.5.6.9.9z" /><path id="ic-missed-call_Контур_1795" class="st0" d="M11.9.1c-.2-.2-.5-.2-.7 0L.1 11.2c-.2.2-.2.5 0 .7.2.2.5.2.6 0L11.9.8c.1-.2.1-.5 0-.7z" /></symbol><symbol viewBox="0 0 17.554 13.919" id="ic-move-to"><g data-name="Сгруппировать 7965"><path data-name="Контур 1672" d="M13.652 13.919h-8a5.65 5.65 0 010-11.3h11a.65.65 0 010 1.3h-11a4.35 4.35 0 000 8.7h8a.65.65 0 010 1.3z" /><path data-name="Контур 1673" d="M14.344 6.419a.65.65 0 01-.459-1.11l2.1-2.1-2.1-2.1a.65.65 0 01.919-.919l2.56 2.56a.65.65 0 010 .919l-2.56 2.56a.648.648 0 01-.46.19z" /></g></symbol><symbol viewBox="0 0 21.3 20.2" id="ic-msg"><path d="M16.5 19.4c-.3 0-.6-.1-.9-.2l-4-2.3c-.4 0-.8 0-1.3-.1L9 16.6l.9-.9c.6-.7 1-1.6 1-2.5C10.9 10.9 8.7 9 6 9c-1 0-1.9.3-2.8.8l-.9.5-.1-1v-.8C2.3 3.8 6.6 0 11.8 0c5.2 0 9.5 3.8 9.5 8.4 0 2.6-1.3 5.1-3.5 6.5l.3 2.6c.1.9-.6 1.7-1.5 1.8 0 .1 0 .1-.1.1zm-4.8-3.8H12l4.3 2.4c.1 0 .2.1.2.1.2 0 .3-.2.3-.4l-.4-3.4.4-.2c2-1.2 3.2-3.4 3.2-5.7 0-3.9-3.7-7.1-8.2-7.1-4.4 0-8 3-8.2 6.8.8-.3 1.6-.5 2.5-.5 3.4 0 6.1 2.5 6.1 5.5.1.9-.1 1.7-.5 2.5z" /><path d="M3.2 20.2c-.4 0-.9-.2-1.1-.6-.1-.2-.2-.5-.1-.8l.2-1.5C.9 16.3.1 14.8 0 13.1c0-1.9 1.1-3.6 2.7-4.6 1-.6 2.2-.9 3.4-.9 3.4 0 6.1 2.5 6.1 5.5 0 1.3-.5 2.5-1.4 3.4-1.2 1.3-2.9 2-4.6 2.1L3.9 20c-.2.1-.5.2-.7.2zM6.1 8.9c-1 0-1.9.3-2.7.8-1.3.7-2 2-2.1 3.5 0 1.3.7 2.6 1.9 3.3l.4.2-.4 2.3L6 17.3h.2c1.5 0 2.8-.6 3.8-1.6.6-.7 1-1.6 1-2.6 0-2.3-2.2-4.2-4.9-4.2z" /></symbol><symbol viewBox="0 0 17.2 17.2" id="ic-note"><g data-name="Сгруппировать 1029"><path data-name="Эллипс 29" d="M14.2 0a3 3 0 11-3 3 3 3 0 013-3zm0 4.8A1.8 1.8 0 1012.4 3a1.8 1.8 0 001.8 1.8z" /><path data-name="Линия 106" d="M8.6 10h-4a.6.6 0 01-.6-.6.6.6 0 01.6-.6h4a.6.6 0 01.6.6.6.6 0 01-.6.6z" /><path data-name="Линия 107" d="M11.8 13.2H4.6a.6.6 0 01-.6-.6.6.6 0 01.6-.6h7.2a.6.6 0 01.6.6.6.6 0 01-.6.6z" /><path data-name="Контур 435" d="M11 17.2H6.2c-2.216 0-3.717-.469-4.724-1.476S0 13.216 0 11V6.2c0-2.216.469-3.717 1.476-4.724S3.984 0 6.2 0h4a.6.6 0 110 1.2h-4c-1.877 0-3.109.357-3.876 1.124S1.2 4.324 1.2 6.2V11c0 1.877.357 3.109 1.124 3.876S4.324 16 6.2 16H11c1.877 0 3.109-.357 3.876-1.124S16 12.876 16 11V7a.6.6 0 011.2 0v4c0 2.216-.469 3.717-1.476 4.724S13.216 17.2 11 17.2z" /></g></symbol><symbol viewBox="0 0 18.3 20.5" id="ic-notice"><path d="M9.2 8.7c-.4 0-.6-.3-.6-.6V4.9c0-.4.3-.6.6-.6s.6.3.6.6v3.2c0 .3-.3.6-.6.6z" /><path d="M9.2 18.1c-2.5 0-4.9-.4-7.2-1.2-.2-.1-.5-.2-.8-.4-.6-.4-1-1-1.1-1.7-.1-.7 0-1.4.4-2l1.2-2c.3-.5.4-1.2.5-1.8V7c0-1.9.7-3.6 2.1-5 1.3-1.3 3.1-2 5-2 3.8 0 7 3.2 7 7v2c0 .6.2 1.3.5 1.9l1.2 2c.1.2.2.4.3.5.2.7.2 1.5-.1 2.1-.3.7-.9 1.2-1.6 1.4-2.5.8-5 1.2-7.4 1.2zm0-16.8c-1.5 0-3 .6-4 1.7-1.1 1-1.7 2.5-1.7 4v2c0 .9-.3 1.7-.7 2.5l-1.2 2c-.4.7-.3 1.5.4 2 .1.1.3.1.4.2 4.4 1.5 9.3 1.5 13.7 0 .4-.1.7-.4.8-.7.2-.4.2-.7.1-1.1 0-.1-.1-.2-.1-.3l-1.2-2c-.4-.8-.7-1.6-.7-2.5v-2c-.1-3.2-2.7-5.8-5.8-5.8z" /><path d="M9.2 20.5c-.1 0-.1 0 0 0-2.1 0-3.8-1.7-3.8-3.8h1.3c0 1.4 1.1 2.5 2.5 2.5.7 0 1.3-.3 1.8-.7.5-.5.7-1.1.8-1.8h1.3c0 1-.4 2-1.1 2.7-.9.7-1.8 1.1-2.8 1.1z" /></symbol><symbol viewBox="0 0 12 14" id="ic-notice-fill"><style>#ic-notice-fill .st0{fill:#8a919f}</style><path id="ic-notice-fill_Контур_1820" class="st0" d="M11.7 8.4l-.8-1.3c-.2-.4-.3-.8-.3-1.2V4.6C10.6 2.1 8.6 0 6 0S1.4 2.1 1.4 4.6v1.3c0 .4-.1.8-.3 1.2L.3 8.4c-.5.8-.3 1.9.5 2.5.2.1.3.2.5.2.8.2 1.5.4 2.3.6h.5c.2 0 .4 0 .6.1.4 0 .9.1 1.3.1s.9 0 1.3-.1h1.1c.8-.1 1.6-.3 2.3-.6 1-.3 1.5-1.4 1.2-2.3 0-.3-.1-.4-.2-.5zM6.5 5.6c0 .3-.2.5-.5.6-.3 0-.5-.2-.6-.5V3.4c0-.3.3-.5.6-.5s.5.2.5.5v2.2z" /><path id="ic-notice-fill_Контур_1821" class="st0" d="M8 12.6c-.4 1.1-1.6 1.7-2.7 1.3-.3-.1-.6-.3-.8-.5-.2-.2-.4-.5-.5-.8h.3c.2 0 .3 0 .5.1.4 0 .8.1 1.2.1s.8 0 1.2-.1h.4c.2-.1.3-.1.4-.1z" /></symbol><symbol viewBox="0 0 13 14.334" id="ic-paper"><g data-name="Сгруппировать 968"><g data-name="Сгруппировать 967"><path data-name="Контур 375" d="M3.834 0h5.333a3.79 3.79 0 012.908 1.077A3.914 3.914 0 0113 3.834V10.5a3.914 3.914 0 01-.925 2.757 3.79 3.79 0 01-2.908 1.077H3.834a3.791 3.791 0 01-2.909-1.077A3.913 3.913 0 010 10.5V3.834a3.913 3.913 0 01.925-2.757A3.791 3.791 0 013.834 0zm5.333 13.334a2.847 2.847 0 002.175-.757A2.963 2.963 0 0012 10.5V3.834a2.963 2.963 0 00-.658-2.077A2.847 2.847 0 009.167 1H3.834a2.848 2.848 0 00-2.176.757A2.962 2.962 0 001 3.834V10.5a2.962 2.962 0 00.658 2.077 2.848 2.848 0 002.176.757z" /><path data-name="Контур 376" d="M10.834 5.334H9.5A1.836 1.836 0 017.667 3.5V2.167a.5.5 0 011 0V3.5a.835.835 0 00.833.834h1.334a.5.5 0 010 1z" /><path data-name="Линия 91" d="M6.501 8.334H3.834a.5.5 0 01-.5-.5.5.5 0 01.5-.5h2.667a.5.5 0 01.5.5.5.5 0 01-.5.5z" /><path data-name="Линия 92" d="M9.167 11H3.834a.5.5 0 01-.5-.5.5.5 0 01.5-.5h5.333a.5.5 0 01.5.5.5.5 0 01-.5.5z" /></g></g></symbol><symbol viewBox="0 0 10 15" id="ic-pause"><style>#ic-pause .st0{fill:#fff}</style><path id="ic-pause_Линия_305" class="st0" d="M1.5 15C.7 15 0 14.3 0 13.5v-12C0 .7.7 0 1.5 0S3 .7 3 1.5v12c0 .8-.7 1.5-1.5 1.5z" /><path id="ic-pause_Линия_306" class="st0" d="M8.5 15c-.8 0-1.5-.7-1.5-1.5v-12C7 .7 7.7 0 8.5 0S10 .7 10 1.5v12c0 .8-.7 1.5-1.5 1.5z" /></symbol><symbol viewBox="0 0 20.3 21" id="ic-people"><path d="M7.412 10.115h-.3c-1.4 0-2.7-.6-3.6-1.6s-1.4-2.3-1.4-3.6c0-1.4.6-2.6 1.6-3.5 1-.9 2.3-1.4 3.6-1.4 2.8.1 5 2.5 4.9 5.3 0 2.6-2.1 4.7-4.8 4.8zm-.2-8.8c-2 0-3.7 1.6-3.8 3.6 0 1 .3 2 1 2.7.7.7 1.6 1.2 2.6 1.2h.3c1.9-.1 3.5-1.7 3.6-3.6.1-2.1-1.5-3.8-3.6-3.9h-.1zM14.512 10.215c-.3 0-.6-.2-.6-.6 0-.4.2-.7.6-.7h.4c1.4-.1 2.6-1.3 2.6-2.8 0-1.6-1.3-2.8-2.8-2.8-.4 0-.6-.3-.7-.6 0-.4.3-.7.6-.7 2.3 0 4.1 1.8 4.1 4.1 0 2.2-1.7 4.1-4 4.1h-.2zM7.412 21.015c-1.8 0-3.7-.5-5.3-1.5-1.4-.9-2.1-2.1-2.1-3.5 0-1.3.7-2.6 2.1-3.5 3.3-1.9 7.3-1.9 10.6 0 1.4.9 2.1 2.1 2.1 3.5 0 1.3-.7 2.6-2.1 3.5-1.6 1-3.5 1.5-5.3 1.5zm-4.6-7.3c-1 .7-1.5 1.5-1.5 2.4s.5 1.7 1.5 2.4c2.8 1.7 6.4 1.7 9.3 0 .9-.6 1.5-1.5 1.5-2.4 0-.9-.5-1.7-1.5-2.4-2.9-1.7-6.5-1.7-9.3 0zM16.512 19.215c-.3 0-.6-.2-.6-.5-.1-.4.2-.7.5-.8.6-.1 1.2-.4 1.7-.7.9-.6 1.2-1.7.6-2.6-.1-.2-.3-.4-.6-.6-.5-.4-1.1-.6-1.7-.8-.4-.1-.6-.4-.5-.8.1-.4.4-.6.8-.5.8.2 1.5.5 2.2 1 .3.2.7.6.9.9.9 1.5.5 3.4-1 4.4-.6.5-1.4.8-2.2 1h-.1z" /></symbol><symbol viewBox="0 0 16 22.745" id="ic-person"><g data-name="Сгруппировать 2686"><path data-name="Контур 653" d="M8 0a5.393 5.393 0 00-.135 10.785 1.355 1.355 0 01.255 0h.073A5.4 5.4 0 008-.002z" /><path data-name="Контур 654" d="M13.774 13.823a11.282 11.282 0 00-11.546 0 4.125 4.125 0 000 7.324 11.231 11.231 0 0011.548 0 4.125 4.125 0 000-7.324zm-3.122 2.732l-2.869 2.869a.706.706 0 01-1 0L5.349 17.99a.708.708 0 011-1l.934.934 2.368-2.369a.708.708 0 011 1z" /></g></symbol><symbol viewBox="0 0 20.3 20.3" id="ic-phone"><path d="M15.4 20.3c-.1 0-.1 0 0 0-1.2 0-2.3-.3-3.4-.8-1.2-.5-2.3-1.2-3.4-2s-2.2-1.7-3.2-2.7c-1-1-1.9-2.1-2.7-3.2-.8-1-1.4-2.2-1.9-3.4C.3 7.3 0 6.1 0 5c0-.7.1-1.4.4-2.1.3-.7.7-1.3 1.3-1.8C2.2.4 3.1 0 4 0c.4 0 .7.1 1.1.2.4.2.7.5.9.8l2.2 3.1c.2.2.3.5.4.8.1.3.2.5.2.8 0 .4-.1.7-.3 1-.1.3-.4.6-.6.8l-.7.7v.1c.3.4.6.8.8 1.1.5.6.9 1 1.4 1.5.5.5 1 .9 1.5 1.4.3.3.7.6 1.1.8h.1l.6-.7c.2-.2.5-.5.8-.6.3-.2.6-.3 1-.3.3 0 .6.1.8.2.3.1.5.3.8.4l3.1 2.2c.3.2.6.5.7.9.1.3.2.7.2 1 0 .5-.1.9-.3 1.3-.2.4-.4.8-.8 1.1-.5.5-1.1 1-1.8 1.3-.4.3-1.1.4-1.8.4zM4.1 1.3c-.6 0-1.2.3-1.5.7-.4.4-.8.9-1 1.4-.2.5-.3 1-.3 1.6 0 1 .2 1.9.6 2.8.5 1.1 1.1 2.2 1.8 3.1C4.5 12 5.4 13 6.3 14c.9.9 2 1.8 3 2.6 1 .7 2 1.3 3.1 1.8.9.4 1.9.6 2.9.6.6 0 1.1-.1 1.6-.3.5-.2 1-.5 1.3-.9.2-.3.4-.5.5-.8.1-.2.2-.5.2-.8 0-.2 0-.3-.1-.5l-.3-.3-3.2-2.2c-.2-.1-.4-.2-.5-.3-.2-.1-.4-.1-.6 0-.2.1-.4.3-.6.4l-.7.7c-.2.2-.5.4-.9.3-.1 0-.3 0-.4-.1l-.2-.1s-.1 0-.1-.1c-.5-.3-.9-.6-1.3-1-.5-.4-1-.9-1.5-1.4-.5-.5-.9-.9-1.4-1.5-.4-.4-.7-.8-1-1.3 0 0 0-.1-.1-.1v-.1c-.1-.2-.1-.3-.1-.4 0-.3.1-.6.3-.8l.8-.8c.2-.2.3-.4.4-.6.1-.1.1-.2.1-.4 0-.1 0-.2-.1-.3 0-.1-.1-.3-.3-.5L4.9 1.7l-.3-.3c-.2-.1-.4-.1-.5-.1zm3.1 7zM16.3 7.9c-.3 0-.6-.2-.6-.6-.1-.7-.4-1.3-.9-1.8-.5-.6-1.1-.9-1.8-1-.4 0-.6-.3-.6-.7 0-.4.4-.6.7-.6 1 .1 2 .6 2.7 1.4.6.6 1.1 1.5 1.2 2.5 0 .5-.2.8-.7.8.1 0 .1 0 0 0zM19.7 7.9c-.4 0-.7-.3-.7-.6 0-3.3-2.7-6-6-6-.4 0-.7-.3-.7-.6s.3-.7.7-.7c4 0 7.3 3.3 7.3 7.3 0 .4-.3.6-.6.6z" /></symbol><symbol viewBox="0 0 17.3 17.696" id="ic-photo"><g data-name="Сгруппировать 1068"><path data-name="Контур 442" d="M12.946 17.696H4.354a3.825 3.825 0 01-2.921-1.109 4.044 4.044 0 01-1-2.577L.007 7.241a3.681 3.681 0 011-2.782 3.747 3.747 0 012.724-1.18.7.7 0 00.609-.374l.587-1.183A3.33 3.33 0 017.715 0h1.877a3.366 3.366 0 012.777 1.718l.59 1.187a.7.7 0 00.608.374 3.749 3.749 0 012.726 1.18 3.681 3.681 0 011 2.783l-.426 6.771a4.076 4.076 0 01-1 2.574 3.819 3.819 0 01-2.921 1.109zm-5.23-16.4a2.063 2.063 0 00-1.626 1L5.502 3.48v.009a1.984 1.984 0 01-1.766 1.082A2.426 2.426 0 001.311 7.15l.426 6.773a2.339 2.339 0 002.622 2.465h8.592a2.347 2.347 0 002.623-2.457L16 7.159a2.427 2.427 0 00-2.426-2.58 1.984 1.984 0 01-1.765-1.082v-.009L11.218 2.3a2.051 2.051 0 00-1.615-1z" /><path data-name="Контур 443" d="M9.88 6.219H7.421a.65.65 0 110-1.3H9.88a.65.65 0 110 1.3z" /><path data-name="Контур 444" d="M8.65 14.417a3.314 3.314 0 113.315-3.314 3.318 3.318 0 01-3.315 3.314zm0-5.329a2.015 2.015 0 102.015 2.015A2.017 2.017 0 008.65 9.088z" /></g></symbol><symbol viewBox="0 0 11 13.7" id="ic-play"><path d="M0 1.3v11.2c0 .7.6 1.2 1.3 1.2.2 0 .5-.1.7-.2l8.5-5.6c.6-.4.7-1.2.4-1.7-.1-.1-.2-.3-.4-.4L1.9.2C1.4-.2.6 0 .2.6.1.8 0 1 0 1.3z" fill-rule="evenodd" clip-rule="evenodd" /></symbol><symbol viewBox="0 0 10.1 10.1" id="ic-plus"><path d="M9.5 5.7H.7c-.4 0-.6-.3-.6-.6s.3-.6.6-.6h8.8c.4 0 .7.3.7.6s-.4.6-.7.6z" /><path d="M5.1 10.1c-.4 0-.6-.3-.6-.7V.6c0-.4.3-.6.6-.6s.6.3.6.6v8.8c0 .5-.3.7-.6.7z" /></symbol><symbol viewBox="0 0 19.3 19.3" id="ic-plus-circle"><path d="M9.6 19.3C4.3 19.3 0 15 0 9.6 0 4.3 4.3 0 9.6 0s9.7 4.3 9.7 9.6c0 5.4-4.3 9.7-9.7 9.7zm0-18C5 1.3 1.3 5 1.3 9.6S5 18 9.6 18 18 14.3 18 9.6s-3.7-8.3-8.4-8.3z" /><path d="M6.1 9h7v1.3h-7z" /><path d="M9 6.1h1.3v7H9z" /></symbol><symbol viewBox="0 0 18.3 19.4" id="ic-print"><style>#ic-print .st0{fill:#010101}</style><path id="ic-print_Контур_1670" class="st0" d="M13.6 6h-9c-.3 0-.6-.3-.6-.6V3.5C4 1.1 5.1 0 7.5 0h3.3c2.4 0 3.5 1.1 3.5 3.5v1.9c0 .3-.3.6-.7.6zM5.3 4.7H13V3.5c0-1.7-.5-2.2-2.2-2.2H7.5c-1.7 0-2.2.5-2.2 2.2v1.2z" /><path id="ic-print_Контур_1671" class="st0" d="M14.8 16.4c-.4 0-.6-.3-.6-.6 0-.4.3-.7.6-.7 1.5 0 2.2-.7 2.2-2.2V8.2c0-1.5-.7-2.2-2.2-2.2H3.5C2 6 1.3 6.7 1.3 8.2v4.7c0 1.5.7 2.2 2.2 2.2.4 0 .6.3.6.7 0 .4-.3.6-.6.6-1.7.2-3.3-1-3.5-2.8V8.2c-.2-1.7 1-3.3 2.8-3.5h12c1.7-.2 3.3 1 3.5 2.8v5.4c.2 1.7-1 3.3-2.8 3.5h-.7z" /><path id="ic-print_Линия_614" class="st0" d="M7.3 9.8H4.4c-.4 0-.7-.3-.7-.6 0-.4.3-.6.7-.6h2.8c.4 0 .6.3.6.6s-.2.6-.5.6z" /><path id="ic-print_Прямоугольник_1138" class="st0" d="M5.9 13.1h6.5c1.4 0 2.4 1.1 2.4 2.4v1.4c0 1.4-1.1 2.4-2.4 2.4H5.9c-1.4 0-2.4-1.1-2.5-2.4v-1.4c0-1.3 1.1-2.4 2.5-2.4zm6.5 5c.6 0 1.1-.5 1.1-1.1v-1.4c0-.6-.5-1.1-1.1-1.2H5.9c-.6 0-1.2.5-1.2 1.2V17c0 .6.5 1.1 1.2 1.1h6.5z" /></symbol><symbol viewBox="0 0 19.3 19.4" id="ic-review"><style>#ic-review .st0{fill:#fff}</style><path class="st0" d="M9.7 19.4c-.4 0-.7-.1-1-.3l-.6-.6-1.3-1.8s-.1-.1-.2-.1H6c-3.7 0-6-1-6-6.1V6c0-4 2.1-6 6-6h7.2c4 0 6.1 2.1 6.1 6v4.5c0 4-2.1 6-6.1 6.1h-.5c-.1 0-.2 0-.2.1l-1.3 1.8c-.3.5-.9.9-1.5.9zM6 1.3C2.8 1.3 1.3 2.8 1.3 6v4.5c0 4.1 1.5 4.8 4.8 4.8h.5c.5 0 .9.2 1.2.6l1.4 1.8c.1.1.1.2.2.2.3.2.7.1.9-.2l1.4-1.8c.3-.4.8-.6 1.2-.6h.5c3.2 0 4.8-1.5 4.8-4.8V6c0-3.2-1.5-4.7-4.8-4.7H6z" /><path class="st0" d="M12.2 9.5h-5c-.4 0-.6-.3-.6-.6s.3-.6.6-.6h5c.4 0 .7.3.7.6s-.4.6-.7.6z" /><path class="st0" d="M9.6 12c-.3 0-.6-.3-.6-.7v-5c0-.3.3-.6.6-.6s.6.3.6.6v5c.1.4-.2.7-.6.7z" /></symbol><symbol viewBox="0 0 15.6 15.6" id="ic-search"><path d="M6.6 13.1C2.9 13.1 0 10.2 0 6.6S2.9 0 6.6 0s6.6 2.9 6.6 6.6-3 6.5-6.6 6.5zm0-11.8c-2.9 0-5.3 2.4-5.3 5.3s2.4 5.3 5.3 5.3 5.3-2.4 5.3-5.3-2.4-5.3-5.3-5.3z" /><path d="M14.7 15.3c-.2 0-.3-.1-.5-.2l-2.8-2.8c-.3-.3-.3-.7 0-.9s.7-.3.9 0l2.8 2.8c.3.3.3.7 0 .9-.1.1-.3.2-.4.2z" /></symbol><symbol viewBox="0 0 17.3 17.4" id="ic-send"><style>#ic-send .st0{fill:#75769a}</style><path class="st0" d="M2.8 17.4c-1 0-1.6-.3-2-.7-.8-.8-1.3-2.4.4-6L2 9.1c.1-.3.1-.6 0-.9l-.8-1.5C-.6 3.2 0 1.5.8.7c.8-.8 2.5-1.3 6 .4L14.4 5c1.9.9 2.9 2.3 2.9 3.7 0 1.4-1 2.8-2.9 3.7l-7.7 3.8c-1.7.9-3 1.2-3.9 1.2zm0-16.1c-.5 0-.9.1-1.1.4-.7.6-.4 2.3.7 4.5l.8 1.6c.3.7.3 1.4 0 2l-.8 1.6c-1.1 2.2-1.3 3.8-.7 4.5s2.3.4 4.5-.7l7.6-3.8c1.4-.7 2.2-1.6 2.2-2.5 0-.9-.8-1.8-2.2-2.5l-7.6-4c-1.4-.7-2.6-1.1-3.4-1.1z" /><path class="st0" d="M7.6 9.4H2.8c-.4 0-.6-.3-.6-.6s.3-.6.6-.6h4.8c.4 0 .6.3.6.6s-.2.6-.6.6z" /></symbol><symbol viewBox="0 0 16.3 14.1" id="ic-send-mail"><style>#ic-send-mail .st0{fill:#75769a}</style><path id="ic-send-mail_Контур_1133" class="st0" d="M11.9 14H4.4c-.4 0-.7-.3-.7-.6s.3-.7.6-.7h7.5c2.1 0 3.1-1 3.1-3.1V4.4c0-2.1-1-3.1-3.1-3.1H4.4c-2.1 0-3.1 1-3.1 3.1 0 .4-.3.6-.6.6S0 4.8 0 4.4C0 1.6 1.6 0 4.4 0h7.5c2.8 0 4.4 1.6 4.4 4.4v5.3c0 2.7-1.6 4.3-4.4 4.3z" /><path id="ic-send-mail_Контур_1134" class="st0" d="M8.2 7.8c-.7 0-1.3-.2-1.8-.6L4 5.3c-.3-.2-.3-.7-.1-.9s.6-.4.9-.1l2.3 1.9c.6.4 1.4.4 2 0l2.3-1.9c.3-.2.7-.2.9.1s.2.7-.1.9L10 7.2c-.6.4-1.2.6-1.8.6z" /><path id="ic-send-mail_Линия_410" class="st0" d="M5.2 11H.7c-.4 0-.7-.2-.7-.6 0-.4.3-.7.7-.7h4.5c.4 0 .7.3.7.6-.1.5-.4.7-.7.7z" /><path id="ic-send-mail_Линия_411" class="st0" d="M2.9 8H.7C.3 8 0 7.8 0 7.4c0-.4.3-.7.7-.7H3c.4 0 .7.3.7.7-.1.4-.4.6-.8.6z" /></symbol><symbol viewBox="0 0 14 11.9" id="ic-sound"><style>#ic-sound .st0{fill:#8a919f}</style><path id="ic-sound_Контур_1790" class="st0" d="M12.6 9.2c-.3 0-.5-.2-.5-.5 0-.1 0-.2.1-.3 1.1-1.5 1.1-3.4 0-4.9-.2-.2-.2-.6.1-.7.2-.2.5-.1.7.1 1.4 1.8 1.4 4.3 0 6.1-.1.1-.3.2-.4.2z" /><path id="ic-sound_Контур_1791" class="st0" d="M8.8.3c-.9-.5-2-.3-2.8.3L4 2.8c-.1.1-.3.2-.4.2H1.7C.8 3 0 3.7 0 4.7v2.4c0 1 .8 1.7 1.7 1.7h1.8c.2 0 .3 0 .5.1l2 2.3c.5.3 1.1.5 1.8.6.4 0 .7-.1 1-.3.8-.6 1.3-1.5 1.2-2.5V2.8c.1-1-.4-2-1.2-2.5z" /></symbol><symbol viewBox="0 0 17.3 16.9" id="ic-spiral"><path d="M9.2 16.3c-1 0-1.9-.4-2.7-1.1-.7-.7-1.1-1.7-1.1-2.7 0-1 .4-2 1.1-2.7l2.2-2.2c.3-.3.7-.3.9 0s.3.7 0 .9l-2.2 2.2c-.5.5-.7 1.1-.7 1.7 0 .7.3 1.3.7 1.7 1 1 2.5 1 3.5 0l3.5-3.5c2.2-2.2 2.2-5.7 0-7.9S8.7.5 6.5 2.7l-3.8 4c-.9.9-1.4 2.1-1.4 3.3 0 1.3.5 2.4 1.4 3.3.3.3.3.7 0 .9s-.7.3-.9 0C.6 13.1 0 11.6 0 10s.6-3.1 1.8-4.2L5.5 2c2.7-2.7 7.1-2.7 9.7 0 2.7 2.7 2.7 7.1 0 9.7l-3.4 3.4c-.7.9-1.7 1.2-2.6 1.2z" /></symbol><symbol viewBox="0 0 19.6 19.8" id="ic-star"><path d="M10.5 19.3c-.6 0-1.4-.3-2.2-1.5l-1.6-2.6c-.2-.3-.6-.5-.9-.5l-3 .2C1 14.9.4 14.3.1 13.7c-.3-.5-.3-1.5.7-2.8l1.8-2.1c.4-.3.4-.6.3-1L2 4.9c-.3-1.1-.1-2 .5-2.6C3 1.7 4 1.6 5 2l2.7.9c.3 0 .6 0 1-.2l2.8-2c1.2-.9 2.1-.7 2.5-.5.4.2 1.1.8 1.1 2.4L15 6c0 .3.2.6.5.9l2.2 1.6c.9.7 1.3 1.5 1.2 2.3-.1.8-.8 1.4-1.8 1.8l-3 .9c-.1 0-.6.3-.6.7l-.8 2.8c-.5 1.6-1.3 2.1-1.9 2.2-.1.1-.2.1-.3.1zm-4.7-5.9c.9 0 1.7.4 2.1 1.1l1.6 2.6c.5.7.9.9 1.1.9.2 0 .6-.4.8-1.2l.8-2.7c.1-.7.7-1.3 1.5-1.6l3.1-.9c.5-.2.9-.5 1-.8 0-.3-.2-.7-.7-1.1L14.8 8c-.6-.6-1-1.3-1-1.9l.1-3.4c0-.6-.2-1.1-.4-1.2-.3-.1-.7 0-1.2.4l-2.8 2c-.8.2-1.5.4-2.1.2l-2.8-.9c-.6-.2-1-.2-1.3.1-.2.2-.2.6-.1 1.2l.9 2.9c.3.8.1 1.5-.4 2.2l-1.8 2.1c-.6.7-.7 1.2-.6 1.4.1.2.5.5 1.5.5l3-.2zm8.7-10.8zM18.7 19.5c-.2 0-.3-.1-.5-.2l-2.8-2.8c-.3-.3-.3-.7 0-.9s.7-.3.9 0l2.8 2.8c.3.3.3.7 0 .9-.1.1-.2.2-.4.2z" /></symbol><symbol viewBox="0 0 10 9.6" id="ic-star-fill"><path d="M7.6 9.6c-.1 0-.2 0-.3-.1L5.1 8.3H5L2.7 9.5c-.4.2-.8.1-1-.3-.1-.2-.1-.3-.1-.5L2 6.2v-.1L.2 4.4c-.3-.3-.3-.8 0-1.1.1-.1.3-.2.4-.2l2.5-.4s.1 0 .1-.1L4.3.4c.2-.4.7-.5 1-.3.1.1.3.2.3.3l1.1 2.2.1.1 2.5.4c.4.1.7.4.6.8 0 .2-.1.3-.2.4L8 6.1s-.1.1 0 .1l.4 2.5c.1.4-.2.8-.6.9h-.2z" /></symbol><symbol viewBox="0 0 8.1 6.3" id="ic-tick"><path d="M2.9 6.3L0 3.4l1.1-1.1 1.8 1.8L7 0l1.1 1.1z" /></symbol><symbol viewBox="0 0 12 12" id="ic-tile"><path d="M10.7 3.8V1.3H8.2v2.5h2.5m0 1.3H8.2c-1 0-1.3-.3-1.3-1.2V1.2C6.9.3 7.3 0 8.2 0h2.4c1 0 1.3.3 1.3 1.2v2.7c.1.9-.3 1.2-1.2 1.2zM10.7 12H8.2c-.7 0-1.3-.6-1.3-1.3V8.2c0-.7.6-1.3 1.3-1.3h2.4c.7 0 1.3.6 1.3 1.3v2.4c.1.8-.5 1.4-1.2 1.4zM8.2 8.2v2.5h2.5V8.2H8.2zM3.8 3.8V1.3H1.3v2.5h2.5m0 1.3H1.3C.4 5.1 0 4.8 0 3.9V1.2C0 .3.4 0 1.3 0h2.4C4.7 0 5 .3 5 1.2v2.7c.1.9-.3 1.2-1.2 1.2zM3.8 12H1.3C.6 12 0 11.4 0 10.7V8.2c0-.7.6-1.3 1.3-1.3h2.4c.7 0 1.3.6 1.3 1.3v2.4c.1.8-.5 1.4-1.2 1.4zM1.3 8.2v2.5h2.5V8.2H1.3z" /></symbol><symbol viewBox="0 0 18 20.7" id="ic-user"><path d="M9 11.1c-3.1 0-5.5-2.5-5.5-5.5S5.9 0 9 0s5.5 2.5 5.5 5.5S12 11.1 9 11.1zm0-9.6c-2.2 0-4 1.8-4 4s1.8 4 4 4 4-1.8 4-4-1.8-4-4-4zM17.2 20.7c-.4 0-.8-.3-.8-.8 0-3.3-3.4-6-7.5-6s-7.5 2.7-7.5 6c0 .4-.3.8-.8.8s-.6-.4-.6-.8c0-4.1 4-7.5 9-7.5s9 3.3 9 7.5c0 .4-.4.8-.8.8z" /></symbol><symbol viewBox="0 0 24.3 17" id="ic-volume"><style>#ic-volume .st0{fill:#fff}</style><path class="st0" d="M11.2 17c-.8 0-1.6-.3-2.5-.8l-2.9-1.8c-.2-.1-.5-.2-.7-.2H2.8c-.9-.1-1.6-.6-2.2-1.3-.5-.7-.8-1.6-.6-2.4V6.6v-.9C.1 4.8.6 4 1.3 3.5c.7-.5 1.6-.8 2.4-.6H5c.2 0 .5-.1.7-.2L8.6.9C10 0 11.4-.2 12.5.4c1.1.6 1.7 1.9 1.7 3.5v9.2c0 1.7-.6 2.9-1.7 3.5-.3.3-.8.4-1.3.4zm-6.1-4.1c.5 0 1 .1 1.4.4l2.9 1.8c1 .6 1.9.8 2.6.4.6-.4 1-1.2 1-2.4V3.9c0-1.2-.4-2.1-1-2.4-.6-.4-1.6-.2-2.6.4L6.5 3.8c-.4.2-1 .4-1.4.4H3.6c-.6-.1-1.1 0-1.5.3-.5.3-.7.8-.8 1.3v4.7c-.1.6.1 1.1.4 1.6.3.4.8.7 1.3.8h2.1zM19.1 11.2c-.2 0-.4-.1-.5-.3-.2-.3-.2-.7.1-.9.1-.1.3-.2.4-.4.3-.4.4-.9.4-1.4-.1-.5-.3-.9-.7-1.2-.3-.2-.3-.6-.1-.9.2-.3.6-.3.9-.1.7.5 1.1 1.2 1.2 2.1s-.1 1.7-.6 2.3c-.2.2-.4.5-.6.6-.3.1-.4.2-.5.2z" /><path class="st0" d="M21.1 14.8c-.2 0-.3-.1-.5-.2-.2-.3-.2-.7 0-.9 1.6-1.5 2.4-3.3 2.4-5.2 0-1.9-.8-3.7-2.4-5.2-.3-.2-.3-.7 0-.9.2-.3.7-.3.9 0 1.8 1.7 2.8 3.9 2.8 6.1 0 2.2-1 4.4-2.8 6.1-.1.1-.3.2-.4.2z" /></symbol><symbol viewBox="0 0 17.033 15.693" id="ic-wallet"><g data-name="Сгруппировать 1077"><path data-name="Линия 109" d="M9.308 7.777h-4.75a.6.6 0 01-.6-.6.6.6 0 01.6-.6h4.75a.6.6 0 01.6.6.6.6 0 01-.6.6z" /><path data-name="Контур 449" d="M.6 7.776a.6.6 0 01-.6-.6V3.522A3.527 3.527 0 013.523-.001h4.446a3.27 3.27 0 013.523 3.218.6.6 0 11-1.2 0 2.106 2.106 0 00-2.323-2.018H3.523A2.326 2.326 0 001.2 3.522v3.654a.6.6 0 01-.6.6z" /><path data-name="Контур 450" d="M3.767 2.618h7.916a3.771 3.771 0 013.767 3.767v1.148a.6.6 0 01-.6.6h-.859a.98.98 0 00-.71.294l-.011.011a.991.991 0 00-.265.98 1.125 1.125 0 001.1.762h.736a.6.6 0 01.6.6v1.148a3.771 3.771 0 01-3.767 3.766H3.758a3.771 3.771 0 01-3.767-3.766V6.386a3.771 3.771 0 013.776-3.768zM14.25 6.933v-.548a2.57 2.57 0 00-2.567-2.567H3.767A2.57 2.57 0 001.2 6.385v5.542a2.569 2.569 0 002.567 2.566h7.916a2.569 2.569 0 002.567-2.566v-.551h-.136a2.31 2.31 0 01-2.263-1.648 2.206 2.206 0 01.579-2.147 2.171 2.171 0 011.565-.651z" /><path data-name="Контур 451" d="M13.991 6.933h1.623a1.413 1.413 0 011.415 1.407v1.636a1.413 1.413 0 01-1.415 1.408h-1.523a2.285 2.285 0 01-2.308-2.027 2.231 2.231 0 012.213-2.419zm1.623 3.246a.212.212 0 00.215-.208V8.34a.211.211 0 00-.215-.207h-1.623a.98.98 0 00-.71.293l-.011.011a.989.989 0 00-.3.8v.007a1.093 1.093 0 001.121.932z" /></g></symbol><symbol viewBox="0 0 15.3 16.8" id="ic-write"><style>#ic-write .st0{fill:#75769a}</style><path id="ic-write_Контур_1137" class="st0" d="M8.8 0c.9.1 1.7.4 2.3 1.1.8.6 1.2 1.5 1.2 2.5-.1.8-.5 1.5-1.1 2.1l-5.6 6c-.4.4-.8.6-1.3.7l-2.2.4h-.4c-.5 0-1-.2-1.3-.6-.3-.4-.5-.9-.4-1.4l.3-2.2c.1-.5.3-1 .6-1.4l5.6-6C7.1.5 7.9.1 8.8 0zM1.7 11.4h.1L4 11l.6-.3 5.6-6c.8-.9 1.1-1.6-.1-2.7-.2-.4-.7-.6-1.3-.7-.5.1-1 .3-1.4.8l-5.6 6c-.1.1-.2.3-.2.6l-.3 2.2c0 .1 0 .3.1.4.1.1.2.1.3.1z" /><path id="ic-write_Контур_1138" class="st0" d="M9.8 6.8c-2.3-.2-4-1.9-4.4-4.1 0-.3.2-.6.6-.7.3 0 .7.2.7.5.2 1.6 1.6 2.8 3.2 3 .4 0 .6.3.6.7 0 .4-.3.6-.7.6z" /><path id="ic-write_Контур_1139" class="st0" d="M1.8 16.8C.8 16.8 0 16 0 15c0-.4.3-.6.7-.6s.7.3.7.6.2.5.5.5c.1 0 .2 0 .3-.1l8.7-5c1-.7 2.2-.8 3.3-.3.8.4 1.3 1.3 1.2 2.2V15c0 .4-.3.6-.7.6s-.7-.2-.7-.6v-2.7c0-.4-.2-.8-.5-1-.6-.3-1.4-.2-2 .3l-8.8 5c-.3.2-.6.2-.9.2z" /></symbol></defs></svg>